HIERARCHY
ROOT Hips
{
	OFFSET -0.001795 -0.223333 0.028219
	CHANNELS 6 Xposition Yposition Zposition Zrotation Yrotation Xrotation 
	JOINT LeftUpLeg
	{
		OFFSET 0.069520 -0.091406 -0.006815
		CHANNELS 3 Zrotation Yrotation Xrotation
		JOINT LeftLeg
		{
			OFFSET 0.034277 -0.375199 -0.004496
			CHANNELS 3 Zrotation Yrotation Xrotation
			JOINT LeftFoot
			{
				OFFSET -0.013596 -0.397961 -0.043693
				CHANNELS 3 Zrotation Yrotation Xrotation
				JOINT LeftToe
				{
					OFFSET 0.026358 -0.055791 0.119288
					CHANNELS 3 Zrotation Yrotation Xrotation
					End Site
					{
						OFFSET 0.000000 0.000000 0.000000
					}
				}
			}
		}
	}
	JOINT RightUpLeg
	{
		OFFSET -0.067670 -0.090522 -0.004320
		CHANNELS 3 Zrotation Yrotation Xrotation
		JOINT RightLeg
		{
			OFFSET -0.038290 -0.382569 -0.008850
			CHANNELS 3 Zrotation Yrotation Xrotation
			JOINT RightFoot
			{
				OFFSET 0.015774 -0.398415 -0.042312
				CHANNELS 3 Zrotation Yrotation Xrotation
				JOINT RightToe
				{
					OFFSET -0.025372 -0.048144 0.123348
					CHANNELS 3 Zrotation Yrotation Xrotation
					End Site
					{
						OFFSET 0.000000 0.000000 0.000000
					}
				}
			}
		}
	}
	JOINT Spine
	{
		OFFSET -0.002533 0.108963 -0.026696
		CHANNELS 3 Zrotation Yrotation Xrotation
		JOINT Spine1
		{
			OFFSET 0.005487 0.135180 0.001092
			CHANNELS 3 Zrotation Yrotation Xrotation
			JOINT Spine2
			{
				OFFSET 0.001457 0.052922 0.025425
				CHANNELS 3 Zrotation Yrotation Xrotation
				JOINT Neck
				{
					OFFSET -0.002778 0.213870 -0.042857
					CHANNELS 3 Zrotation Yrotation Xrotation
					JOINT Head
					{
						OFFSET 0.005152 0.064970 0.051349
						CHANNELS 3 Zrotation Yrotation Xrotation
						End Site
						{
							OFFSET 0.000000 0.000000 0.000000
						}
					}
				}
				JOINT LeftShoulder
				{
					OFFSET 0.078845 0.121749 -0.034090
					CHANNELS 3 Zrotation Yrotation Xrotation
					JOINT LeftArm
					{
						OFFSET 0.090977 0.030469 -0.008868
						CHANNELS 3 Zrotation Yrotation Xrotation
						JOINT LeftForeArm
						{
							OFFSET 0.259612 -0.012772 -0.027456
							CHANNELS 3 Zrotation Yrotation Xrotation
							JOINT LeftHand
							{
								OFFSET 0.249234 0.008986 -0.001171
								CHANNELS 3 Zrotation Yrotation Xrotation
								End Site
								{
									OFFSET 0.000000 0.000000 0.000000
								}
							}
						}
					}
				}
				JOINT RightShoulder
				{
					OFFSET -0.081759 0.118833 -0.038615
					CHANNELS 3 Zrotation Yrotation Xrotation
					JOINT RightArm
					{
						OFFSET -0.096012 0.032551 -0.009143
						CHANNELS 3 Zrotation Yrotation Xrotation
						JOINT RightForeArm
						{
							OFFSET -0.253742 -0.013329 -0.021401
							CHANNELS 3 Zrotation Yrotation Xrotation
							JOINT RightHand
							{
								OFFSET -0.255298 0.007772 -0.005559
								CHANNELS 3 Zrotation Yrotation Xrotation
								End Site
								{
									OFFSET 0.000000 0.000000 0.000000
								}
							}
						}
					}
				}
			}
		}
	}
}
MOTION
Frames: 16
Frame Time: 0.050000
0.000000 0.658820 0.000000 -3.006573 4.793919 41.495837 23.222589 -5.911245 27.270306 -22.528029 -7.780124 -65.146682 69.748690 25.713064 117.836874 0.000000 0.000000 0.000000 -23.084768 4.223927 25.130690 22.143008 4.721595 -62.970714 -50.185624 -32.168993 102.511898 0.000000 0.000000 0.000000 1.615055 -0.268019 -0.037295 -10.818300 -3.740862 -88.030398 1.092013 -8.519450 85.951572 -2.651916 3.791452 -119.083231 0.000000 0.000000 0.000000 -19.852709 -7.401836 7.361253 -26.731340 -32.173628 -5.676645 -113.204957 48.242470 -65.276774 0.000000 0.000000 0.000000 21.895887 -1.034536 -0.612843 37.073474 -0.063090 -12.445159 33.762024 -73.333391 -26.447017 0.000000 0.000000 0.000000 
-0.000493 0.656595 -0.000459 -3.018923 4.486827 42.550811 22.349998 -5.173398 24.052745 -19.642250 -6.103512 -63.250747 70.191640 21.841691 125.715015 0.000000 0.000000 0.000000 -24.572969 4.531596 22.884640 24.375460 5.532124 -61.472141 -54.569494 -33.367326 102.859327 0.000000 0.000000 0.000000 1.409636 -0.198026 -0.745751 -8.412373 -2.722140 -88.950108 -0.125621 -5.618733 86.521112 4.360342 4.606782 -118.970278 0.000000 0.000000 0.000000 -20.466618 -6.906338 6.938986 -27.320683 -35.517363 -5.515954 -111.992825 52.580766 -68.520631 0.000000 0.000000 0.000000 24.031633 0.595681 1.011819 38.037570 -2.722401 -13.606185 24.172963 -72.513813 -17.939189 0.000000 0.000000 0.000000 
-0.000474 0.655016 -0.000460 -3.943272 3.447422 42.772903 22.925303 -5.279923 25.300947 -20.782977 -6.251126 -63.985706 67.890576 22.405647 124.935963 0.000000 0.000000 0.000000 -25.704201 5.034858 22.321014 26.175169 6.645625 -61.408419 -55.120995 -33.401748 102.934439 0.000000 0.000000 0.000000 1.086223 -0.032736 -2.948943 -3.312919 -0.108527 -87.386351 -3.240554 -0.903483 85.042100 20.903480 8.278406 -124.248508 0.000000 0.000000 0.000000 -21.435367 -7.794499 6.926810 -26.528945 -32.336755 -5.951380 -105.377546 54.445611 -66.095131 0.000000 0.000000 0.000000 27.710753 4.058633 3.828489 34.745107 -5.768782 -12.923116 41.087955 -73.600287 -33.041158 0.000000 0.000000 0.000000 
-0.000474 0.651507 -0.000597 -4.347146 2.533050 43.442625 22.284909 -4.860880 25.280392 -21.192242 -5.884633 -62.766464 67.513489 23.860545 122.326317 0.000000 0.000000 0.000000 -27.042847 5.569017 21.711678 25.957047 6.978642 -62.364552 -51.675042 -31.577072 105.159900 0.000000 0.000000 0.000000 1.948350 0.042837 -5.793791 -6.226852 -0.587888 -85.557944 -1.496303 -2.892551 84.287349 17.155392 7.383287 -121.403079 0.000000 0.000000 0.000000 -20.679127 -9.256797 8.006166 -27.586382 -31.832033 -5.833494 -99.252768 53.290582 -58.057111 0.000000 0.000000 0.000000 26.333479 3.684629 2.969585 36.167414 -7.984396 -13.755518 28.896929 -76.684703 -24.555955 0.000000 0.000000 0.000000 
-0.000592 0.652151 -0.000527 -5.072724 1.288770 42.813549 21.798988 -4.512656 26.166707 -21.271831 -5.397993 -62.191519 66.971329 24.019946 122.419160 0.000000 0.000000 0.000000 -27.893157 5.947459 20.571618 26.827405 7.628660 -61.130287 -55.040131 -31.835247 106.592816 0.000000 0.000000 0.000000 2.228112 0.128449 -7.106706 -4.149886 0.772772 -83.670935 -2.769406 -0.386400 83.956573 25.132379 8.447255 -120.433749 0.000000 0.000000 0.000000 -20.963146 -9.630223 8.016355 -27.595728 -31.377652 -5.974804 -92.881405 54.512767 -54.435327 0.000000 0.000000 0.000000 27.672912 4.149536 3.759713 36.450493 -8.426275 -14.185354 27.088596 -77.040265 -22.835679 0.000000 0.000000 0.000000 
-0.000638 0.649959 -0.000481 -5.946191 0.067136 42.512387 20.779238 -4.048250 28.012708 -20.818237 -4.882631 -63.153208 66.833777 24.612519 121.440515 0.000000 0.000000 0.000000 -28.452201 6.404804 20.505884 27.231149 8.215271 -60.761212 -53.535864 -32.039556 104.559920 0.000000 0.000000 0.000000 2.415904 0.181937 -7.636168 -3.104363 1.728170 -82.856013 -3.011530 0.304037 83.184822 27.889191 8.591831 -118.399422 0.000000 0.000000 0.000000 -20.787851 -9.436429 7.889671 -27.719239 -29.873777 -6.091388 -82.804097 54.418803 -46.644848 0.000000 0.000000 0.000000 26.964753 3.731189 3.382440 37.808083 -8.166207 -14.536961 18.373276 -78.067511 -15.480614 0.000000 0.000000 0.000000 
-0.000693 0.649472 -0.000515 -5.796126 -0.311582 41.844098 20.472996 -3.911972 28.836886 -20.765118 -4.834528 -63.218262 66.092437 24.416499 121.786460 0.000000 0.000000 0.000000 -28.052153 6.463869 21.482379 26.554830 8.253750 -61.558724 -55.798102 -32.549345 104.640188 0.000000 0.000000 0.000000 2.537235 0.216522 -8.059727 -2.510219 2.039467 -82.772552 -3.441910 0.712675 83.476589 28.307215 8.465935 -117.579189 0.000000 0.000000 0.000000 -21.061812 -9.037254 7.757612 -27.792830 -29.597199 -6.241392 -76.555828 55.832631 -43.356647 0.000000 0.000000 0.000000 27.130416 3.879866 3.551526 38.072829 -7.269461 -14.531942 9.883664 -78.092053 -8.186657 0.000000 0.000000 0.000000 
-0.000638 0.648211 -0.000539 -5.826296 -0.563480 41.804024 19.954858 -3.733212 29.582695 -20.321721 -4.637310 -63.757474 65.137732 24.635302 121.165882 0.000000 0.000000 0.000000 -28.062783 6.569582 21.750178 26.463735 8.363433 -61.886369 -56.127107 -32.809333 104.084169 0.000000 0.000000 0.000000 2.473151 0.233633 -8.146850 -1.381633 2.508042 -82.530631 -3.405051 1.445043 82.633368 27.455538 8.344551 -118.075231 0.000000 0.000000 0.000000 -21.879829 -9.277976 7.834547 -26.795981 -28.362086 -6.295660 -72.332979 56.219343 -41.482093 0.000000 0.000000 0.000000 27.309093 3.909969 3.746054 37.931313 -4.975936 -13.849941 12.203517 -78.863878 -9.915120 0.000000 0.000000 0.000000 
-0.000495 0.646781 -0.000635 -5.484681 -0.645036 41.616476 19.761961 -3.689920 30.081629 -19.985118 -4.531692 -63.842901 62.616618 24.460735 121.146213 0.000000 0.000000 0.000000 -28.215366 6.609886 21.799505 26.349369 8.314697 -61.980858 -58.590586 -33.014289 105.268955 0.000000 0.000000 0.000000 2.550705 0.229274 -8.171660 -1.360719 2.520403 -82.754026 -2.858432 1.611399 82.509961 24.209108 7.491737 -117.556073 0.000000 0.000000 0.000000 -22.343928 -9.016534 7.654425 -26.139261 -27.392463 -6.352446 -72.137977 56.948299 -42.478767 0.000000 0.000000 0.000000 27.218063 3.803075 3.780542 37.877800 -2.780253 -13.283108 12.811826 -78.700462 -10.083586 0.000000 0.000000 0.000000 
-0.000444 0.646160 -0.000852 -5.204556 -0.673588 41.366311 19.611543 -3.654992 30.519178 -19.462831 -4.404400 -64.425791 60.908285 23.879249 122.217596 0.000000 0.000000 0.000000 -28.192334 6.571120 21.820057 26.589729 8.438504 -62.000934 -62.522177 -33.746344 106.077014 0.000000 0.000000 0.000000 2.674778 0.222507 -8.173838 -1.419499 2.474242 -82.233967 -2.343324 1.625926 81.604451 20.507523 6.968950 -117.885436 0.000000 0.000000 0.000000 -22.920666 -9.001646 7.621843 -26.228873 -25.819589 -6.425611 -70.371550 57.994907 -42.363928 0.000000 0.000000 0.000000 27.267462 3.999600 3.921093 37.698979 -0.365922 -12.501230 14.694668 -78.869608 -11.426690 0.000000 0.000000 0.000000 
-0.000548 0.644857 -0.000981 -4.956383 -0.646112 41.396141 19.330769 -3.590634 30.759564 -18.969076 -4.224975 -64.361237 58.907478 23.969004 121.659228 0.000000 0.000000 0.000000 -28.360509 6.590307 21.767629 26.668193 8.383228 -61.812953 -63.360097 -33.988776 106.084281 0.000000 0.000000 0.000000 2.458461 0.277428 -8.754937 -0.866120 2.576920 -81.641117 -1.917266 2.113394 81.107992 19.396405 6.474818 -117.356938 0.000000 0.000000 0.000000 -23.070560 -9.136162 7.474276 -26.650065 -24.228610 -6.544565 -68.977783 57.808068 -41.509237 0.000000 0.000000 0.000000 27.152999 4.210794 4.313549 38.144070 2.075419 -12.039802 24.193197 -78.820086 -18.626641 0.000000 0.000000 0.000000 
-0.000911 0.643284 -0.000946 -4.744762 -0.613784 41.485688 19.217320 -3.586335 31.080024 -18.568149 -4.067641 -64.277678 56.046136 24.103902 120.817336 0.000000 0.000000 0.000000 -28.586785 6.682400 22.016244 26.951502 8.538194 -62.282674 -64.212112 -34.138969 106.305086 0.000000 0.000000 0.000000 2.570213 0.295408 -9.148483 -1.604155 2.287001 -80.826067 -1.120364 1.730551 79.918390 14.151711 5.626492 -117.245246 0.000000 0.000000 0.000000 -24.009522 -8.837328 7.393298 -26.447874 -22.435149 -6.625842 -66.374644 57.700767 -39.937528 0.000000 0.000000 0.000000 26.726358 4.248946 4.227196 38.540129 3.426480 -11.630774 24.755497 -78.310062 -18.696843 0.000000 0.000000 0.000000 
-0.001357 0.642017 -0.000619 -4.401564 -0.400017 41.586122 19.287820 -3.658413 30.684771 -18.344557 -3.982701 -63.364727 54.022876 24.169508 120.215428 0.000000 0.000000 0.000000 -28.444455 6.600651 22.188895 26.802319 8.410071 -62.558142 -65.581389 -34.369574 106.666183 0.000000 0.000000 0.000000 2.330896 0.312836 -9.334116 -1.637135 2.158481 -80.868466 -0.816845 1.759206 79.788694 11.304122 4.942583 -116.610449 0.000000 0.000000 0.000000 -24.646318 -8.286333 7.043734 -26.606477 -21.348673 -6.757783 -63.569251 58.165165 -38.518129 0.000000 0.000000 0.000000 26.652431 4.176011 4.293043 38.506192 5.062114 -11.226320 27.518531 -78.930783 -20.902685 0.000000 0.000000 0.000000 
-0.001687 0.640591 -0.000122 -3.967083 -0.068937 41.502042 19.499917 -3.816311 30.547745 -18.411303 -4.064660 -62.317980 51.723474 24.403157 118.885803 0.000000 0.000000 0.000000 -28.692130 6.656923 22.760332 27.143233 8.441632 -62.887224 -65.753739 -34.329148 106.934657 0.000000 0.000000 0.000000 2.388630 0.295283 -9.329850 -2.521476 1.684714 -80.044317 0.167895 1.659890 78.671885 8.040292 4.217096 -116.406366 0.000000 0.000000 0.000000 -25.664173 -8.551324 7.067324 -25.666221 -19.694071 -6.646431 -60.907669 57.167661 -36.708910 0.000000 0.000000 0.000000 26.981904 4.122927 4.379832 38.489254 5.067468 -11.092094 28.038418 -78.002746 -20.946766 0.000000 0.000000 0.000000 
-0.001928 0.640079 0.000142 -3.445498 0.552992 41.612409 20.082153 -4.127794 29.691754 -18.706252 -4.271592 -60.902772 49.850571 24.480824 117.938289 0.000000 0.000000 0.000000 -28.528606 6.456674 22.882318 27.154963 8.169860 -62.906023 -67.003751 -34.367997 107.719911 0.000000 0.000000 0.000000 2.093620 0.282516 -9.230765 -2.819433 1.301061 -79.910137 0.423576 1.385762 78.310899 6.580802 3.902915 -116.230064 0.000000 0.000000 0.000000 -25.912252 -8.298069 6.834514 -25.968185 -19.411406 -6.676808 -58.106420 57.278908 -34.902052 0.000000 0.000000 0.000000 26.437707 3.883183 4.270822 38.380155 5.493248 -10.911943 29.131251 -77.771094 -21.731502 0.000000 0.000000 0.000000 
-0.002113 0.639793 0.000108 -2.668721 1.230052 41.600387 20.400200 -4.366447 29.054814 -18.850129 -4.530074 -60.148445 48.717236 24.362988 117.602752 0.000000 0.000000 0.000000 -28.420596 6.291351 23.458892 26.814311 7.771826 -63.273596 -67.252820 -34.109667 108.567479 0.000000 0.000000 0.000000 1.740381 0.260947 -8.902470 -3.447797 0.751842 -80.192641 1.016125 1.046799 78.540196 4.836236 3.474208 -116.427005 0.000000 0.000000 0.000000 -26.196539 -8.668200 6.919939 -25.648274 -19.531498 -6.574360 -57.388077 57.124316 -34.537960 0.000000 0.000000 0.000000 25.824181 3.619970 4.229514 38.595930 5.740553 -10.948786 31.378069 -77.378044 -23.206094 0.000000 0.000000 0.000000 
